<svg version="1.0" xmlns="http://www.w3.org/2000/svg"
 width="640.000000pt" height="640.000000pt" viewBox="0 0 640.000000 640.000000"
 preserveAspectRatio="xMidYMid meet">
<metadata>
Created by potrace 1.16, written by Peter Selinger 2001-2019
</metadata>
<g transform="translate(0.000000,640.000000) scale(0.100000,-0.100000)"
fill="#000000" stroke="none">
<path d="M2870 6106 c-227 -32 -404 -72 -582 -135 -364 -127 -647 -285 -943
-527 -338 -276 -643 -673 -814 -1061 -29 -65 -57 -127 -62 -138 -21 -49 -93
-271 -115 -355 -61 -243 -83 -437 -83 -740 0 -253 11 -391 44 -565 126 -666
479 -1267 1010 -1722 77 -66 309 -233 370 -267 17 -9 62 -34 100 -56 68 -39
96 -53 235 -118 224 -103 486 -181 736 -219 95 -14 185 -17 454 -18 437 0 508
7 775 75 187 48 308 91 483 172 46 21 86 38 88 38 3 0 62 32 132 72 708 401
1226 1066 1427 1832 30 114 43 178 71 346 3 19 8 172 11 339 9 503 -25 737
-161 1107 -67 184 -103 264 -196 429 -207 369 -499 703 -820 938 -52 38 -106
77 -120 87 -26 20 -138 89 -205 127 -259 148 -602 273 -900 328 -49 10 -112
21 -140 26 -85 16 -686 20 -795 5z m740 -61 c138 -17 247 -37 355 -65 472
-123 894 -350 1242 -668 108 -99 274 -275 331 -351 15 -20 29 -38 32 -41 3 -3
14 -18 26 -35 11 -16 41 -59 66 -95 188 -270 338 -607 421 -945 61 -245 77
-392 77 -695 0 -241 -8 -347 -36 -505 -137 -757 -562 -1428 -1184 -1871 -404
-287 -885 -472 -1365 -524 -133 -15 -551 -12 -680 5 -266 33 -558 109 -750
195 -280 125 -406 195 -598 332 -124 89 -140 103 -276 227 -204 186 -430 467
-549 683 -30 54 -118 229 -147 293 -107 236 -186 527 -221 810 -18 151 -18
578 1 720 32 245 109 547 180 710 117 267 208 436 319 590 19 28 41 59 48 69
38 57 202 248 284 330 53 54 216 196 269 236 33 25 62 48 65 51 22 26 270 180
375 233 361 180 626 264 985 311 135 18 586 18 730 0z"/>
<path d="M3222 5903 c-79 -3 -91 -6 -79 -18 17 -16 31 -359 16 -387 -9 -16 -4
-18 36 -18 42 0 45 2 35 19 -5 11 -10 56 -10 100 l0 81 30 0 c17 0 33 -7 39
-17 8 -14 10 -9 11 25 0 40 -1 42 -16 27 -9 -9 -26 -15 -38 -13 -20 3 -21 9
-21 88 l0 85 31 3 c19 2 38 -3 47 -12 22 -23 27 -20 27 14 0 17 -3 29 -7 28
-5 -1 -50 -4 -101 -5z"/>
<path d="M3432 5823 c-16 -43 -46 -129 -66 -192 -21 -63 -42 -123 -47 -133 -8
-15 -6 -18 19 -18 26 0 29 3 25 24 -8 41 15 96 40 96 51 0 64 -10 70 -53 3
-22 1 -49 -4 -59 -8 -16 -5 -18 25 -18 19 0 42 -3 51 -7 14 -5 16 -3 7 13 -5
10 -15 53 -22 94 -15 93 -60 324 -65 328 -1 2 -16 -32 -33 -75z"/>
<path d="M2907 5883 c-25 -4 -27 -6 -13 -16 12 -9 21 -53 36 -172 11 -88 20
-175 20 -194 l0 -34 77 7 c43 4 79 8 80 10 2 1 5 25 8 52 l6 49 -15 -32 c-16
-34 -43 -53 -75 -53 -12 0 -21 1 -22 3 0 1 -9 81 -19 177 -11 111 -14 181 -8
193 7 14 4 17 -19 16 -15 -1 -41 -4 -56 -6z"/>
<path d="M2785 5869 c-16 -5 -56 -13 -88 -20 -53 -10 -57 -12 -44 -27 17 -21
89 -355 81 -377 -3 -8 -4 -15 -1 -15 6 0 82 15 135 26 19 4 22 10 21 52 l0 47
-12 -35 c-9 -26 -20 -37 -45 -44 -18 -5 -35 -7 -37 -4 -9 9 -34 152 -28 161 3
5 21 7 39 5 31 -4 34 -2 34 24 0 27 -15 39 -22 18 -2 -6 -17 -12 -33 -13 -29
-2 -30 0 -42 53 -20 97 -18 108 22 116 22 4 41 2 50 -6 13 -10 15 -8 15 13 0
32 -7 36 -45 26z"/>
<path d="M3647 5848 c6 -31 -44 -358 -57 -373 -8 -9 -3 -14 21 -19 47 -9 48
-9 47 27 0 17 11 99 26 180 14 81 26 152 26 157 0 6 11 10 25 10 18 0 28 -7
35 -25 18 -49 -17 -145 -53 -145 -13 0 -17 -5 -14 -15 4 -8 9 -49 13 -92 6
-66 11 -82 35 -105 32 -32 65 -38 54 -10 -4 9 -15 55 -25 102 -17 83 -17 85 2
99 26 18 58 88 58 127 0 50 -31 79 -96 93 -87 17 -102 15 -97 -11z"/>
<path d="M2568 5823 c-13 -3 -16 -9 -9 -21 5 -9 12 -64 15 -122 l7 -105 -48
75 c-27 41 -58 90 -68 108 -11 17 -23 32 -27 32 -5 0 -6 -54 -2 -120 4 -66 5
-120 2 -120 -10 0 -108 167 -108 184 0 19 -2 19 -51 4 -35 -10 -54 -28 -30
-28 9 0 91 -120 187 -275 l44 -70 -5 85 c-3 47 -7 106 -10 133 -2 26 -1 47 3
47 5 0 39 -49 76 -110 38 -60 70 -110 72 -110 2 0 1 19 -2 43 -12 94 -20 333
-13 355 9 23 4 25 -33 15z"/>
<path d="M3937 5802 c5 -19 -68 -311 -89 -358 -6 -13 -16 -24 -22 -25 -6 0 18
-9 54 -18 36 -10 75 -21 87 -25 19 -6 25 -1 43 35 l22 42 -27 -22 c-32 -25
-83 -28 -92 -5 -3 8 3 45 14 82 21 74 38 87 73 52 l20 -20 10 25 c15 39 13 41
-25 37 -47 -6 -51 10 -24 98 22 72 22 72 53 66 17 -3 38 -15 47 -26 15 -17 18
-18 23 -4 13 34 4 41 -71 59 -43 10 -83 20 -90 22 -7 3 -10 -3 -6 -15z"/>
<path d="M4280 5558 c-52 -66 -114 -145 -137 -174 -33 -41 -39 -54 -27 -58 26
-10 34 -7 34 12 0 9 13 31 28 49 27 32 27 32 65 16 36 -15 37 -17 31 -52 -3
-20 -12 -45 -19 -57 -12 -19 -11 -22 22 -38 20 -9 37 -16 38 -14 9 11 72 438
64 438 -2 0 -47 -55 -99 -122z"/>
<path d="M1988 5616 c-48 -25 -49 -27 -29 -44 25 -23 171 -305 171 -332 0 -12
3 -20 8 -18 156 73 150 68 133 128 -7 25 -8 24 -15 -7 -8 -33 -38 -63 -64 -63
-15 0 -166 305 -164 333 1 21 -5 21 -40 3z"/>
<path d="M4538 5563 c-31 -20 -68 -81 -68 -114 0 -13 7 -56 16 -95 19 -82 14
-117 -21 -140 -23 -15 -27 -15 -51 1 -23 15 -26 22 -21 61 5 48 -5 49 -28 3
-17 -31 -14 -40 18 -76 15 -17 32 -23 60 -23 32 0 46 6 73 35 52 56 60 95 35
190 -24 93 -15 128 32 133 36 4 57 -13 57 -47 l0 -26 20 25 c11 14 20 27 20
30 0 9 -68 49 -92 55 -13 3 -35 -2 -50 -12z"/>
<path d="M1784 5495 c3 -11 21 -74 40 -140 19 -66 44 -147 56 -179 11 -33 20
-68 20 -78 0 -17 1 -18 25 -2 21 14 23 18 11 28 -8 6 -21 28 -30 48 -14 37
-14 38 11 58 14 11 34 20 43 20 17 0 64 -46 72 -71 3 -8 18 -4 48 12 36 18 41
24 25 27 -11 2 -72 54 -135 116 -168 163 -193 185 -186 161z"/>
<path d="M4744 5450 c-27 -11 -72 -65 -80 -97 -4 -14 -1 -63 6 -110 13 -79 12
-85 -7 -111 -44 -60 -119 -21 -94 49 15 43 8 47 -18 11 -29 -41 -26 -66 10
-96 50 -42 99 -31 156 34 32 36 36 71 22 166 -11 77 -11 85 6 104 34 37 95 16
95 -33 l0 -21 22 21 21 22 -33 28 c-50 43 -69 48 -106 33z"/>
<path d="M1597 5381 c-32 -25 -35 -30 -20 -35 18 -7 210 -259 229 -302 l10
-24 32 24 c31 23 32 24 13 37 -31 22 -222 301 -217 316 8 20 -5 15 -47 -16z"/>
<path d="M1475 5286 c-17 -7 -45 -30 -63 -50 -27 -31 -32 -45 -32 -87 0 -101
95 -216 206 -249 116 -35 200 81 128 176 -34 44 -39 39 -14 -11 26 -51 25 -86
-1 -114 -17 -18 -29 -22 -55 -18 -75 12 -192 127 -214 209 -24 88 37 143 114
103 40 -21 40 -20 10 20 -29 39 -35 40 -79 21z"/>
<path d="M4905 5278 c-79 -43 -165 -175 -165 -253 0 -105 99 -157 200 -105 85
43 170 158 170 229 0 47 -27 98 -65 121 -36 22 -107 26 -140 8z m153 -61 c25
-52 -33 -159 -127 -233 -65 -51 -95 -60 -127 -39 -53 35 -7 154 99 256 66 63
128 70 155 16z"/>
<path d="M3055 5154 c-16 -2 -66 -9 -110 -15 -316 -41 -657 -181 -923 -378
-98 -73 -280 -247 -359 -343 -129 -158 -260 -391 -333 -591 -98 -271 -139
-597 -110 -875 40 -377 179 -730 404 -1027 130 -172 348 -371 531 -485 592
-368 1322 -407 1945 -104 602 293 1009 843 1117 1509 24 151 24 448 -1 600
-61 372 -212 709 -441 985 -76 91 -238 249 -321 312 -258 198 -584 338 -914
393 -90 16 -420 28 -485 19z m330 -339 c38 -8 80 -15 92 -15 13 0 23 -4 23
-10 0 -5 14 -10 30 -10 17 0 30 -4 30 -9 0 -4 11 -6 25 -3 15 2 25 0 25 -7 0
-7 4 -9 10 -6 5 3 19 0 31 -8 11 -8 30 -12 41 -9 18 4 19 3 9 -17 -11 -19 -9
-21 14 -21 15 0 23 4 20 10 -4 6 1 7 12 3 34 -12 108 -69 147 -112 11 -14 31
-35 44 -48 12 -13 22 -28 22 -33 0 -5 14 -16 30 -25 17 -9 30 -22 30 -31 0 -8
-4 -12 -10 -9 -23 14 5 -33 39 -65 44 -42 71 -83 71 -108 0 -10 18 -47 40 -83
50 -78 102 -188 95 -199 -3 -4 1 -10 9 -13 15 -6 27 -77 13 -77 -5 0 -6 -19
-3 -42 3 -24 11 -144 16 -268 5 -124 14 -308 18 -410 9 -190 8 -210 -12 -210
-12 -1 -56 -81 -56 -102 0 -7 9 -2 20 12 14 18 20 21 20 9 0 -9 -3 -19 -7 -23
-4 -4 -8 -23 -10 -43 -1 -20 -6 -39 -12 -42 -5 -4 -19 -32 -31 -64 -14 -37
-38 -73 -68 -104 -26 -25 -41 -42 -34 -38 34 19 -10 -34 -62 -75 -31 -25 -56
-50 -56 -56 0 -6 -9 -19 -20 -29 -11 -10 -20 -13 -20 -8 0 6 7 16 15 23 19 16
19 30 1 30 -8 0 -16 6 -19 13 -3 9 -8 9 -21 -2 -9 -8 -14 -21 -11 -30 3 -10
-6 -23 -25 -36 -34 -23 -41 -50 -10 -40 34 11 22 -10 -23 -43 -43 -30 -44 -32
-41 -84 2 -61 16 -93 200 -465 69 -139 122 -257 119 -263 -4 -7 -100 -9 -282
-7 l-275 3 -39 48 c-21 26 -44 67 -51 90 -6 22 -16 46 -22 51 -6 6 -18 19 -26
29 -13 18 -13 19 0 11 8 -4 22 -13 30 -20 8 -7 24 -15 35 -19 24 -8 -22 30
-97 80 l-53 35 33 -31 c17 -17 32 -35 32 -39 0 -16 -14 -20 -28 -8 -12 10 -17
8 -26 -7 -6 -10 -19 -28 -28 -40 l-17 -21 -1 28 c0 15 -4 27 -10 27 -14 0 -12
73 3 92 6 9 19 18 27 20 8 3 -15 19 -53 38 -37 18 -70 37 -73 41 -2 4 -19 12
-37 17 -110 32 -117 36 -105 45 9 6 8 7 -5 3 -10 -3 -30 -6 -44 -6 -35 0 -22
-12 35 -31 41 -14 49 -21 63 -60 13 -37 123 -214 159 -256 5 -7 10 -16 10 -21
0 -4 13 -21 30 -37 61 -58 57 -60 -222 -63 -257 -3 -313 3 -301 34 3 9 -2 14
-16 14 -17 0 -21 6 -21 30 0 29 -7 34 -47 33 -7 -1 -13 3 -13 8 0 10 -37 49
-47 49 -3 0 -15 7 -25 17 -23 21 -25 73 -2 73 14 0 14 3 4 15 -16 19 -30 19
-30 0 0 -20 -44 -20 -61 1 -17 21 1 50 30 47 14 -2 19 2 15 12 -4 9 -19 15
-36 15 -22 0 -29 4 -27 18 3 38 -2 72 -11 72 -5 0 -10 -6 -10 -14 0 -11 -9
-13 -37 -10 l-38 5 25 -22 25 -22 -25 8 c-13 4 -51 11 -83 15 -32 3 -62 12
-66 19 -5 7 -18 10 -32 7 -36 -9 -89 45 -89 90 0 16 -6 22 -25 22 -18 0 -25
-6 -25 -19 0 -17 -9 -19 -104 -19 l-105 0 -3 27 c-3 23 -9 29 -40 34 -54 8
-75 32 -83 92 -7 45 -5 53 15 69 12 10 35 18 51 18 30 0 39 17 14 26 -8 3 -17
22 -21 42 -4 21 -10 42 -15 48 -5 6 -1 19 11 32 25 26 25 27 -1 29 -12 1 -28
11 -36 22 -11 17 -25 21 -66 21 -37 0 -68 8 -106 28 -68 34 -74 49 -24 57 21
3 52 10 69 16 18 5 81 9 140 7 125 -2 142 2 169 41 11 15 39 50 62 77 81 94
113 136 113 147 -1 7 -23 -12 -49 -42 -34 -38 -54 -52 -65 -48 -9 4 -16 13
-16 22 0 8 -6 15 -12 16 -10 0 -10 2 0 6 10 4 10 10 -3 30 -9 13 -20 48 -25
76 -4 29 -11 65 -15 81 l-8 28 39 -25 c43 -27 127 -50 89 -24 -11 8 -41 24
-67 37 -26 13 -60 36 -75 52 -27 28 -51 39 -37 16 4 -6 3 -8 -3 -5 -18 11 -36
95 -31 149 5 61 50 168 71 168 10 0 16 18 20 63 5 52 32 154 77 293 6 17 8 39
4 48 -4 12 22 45 95 119 56 56 122 132 148 169 25 37 48 66 52 64 3 -2 15 6
26 17 11 11 14 17 7 12 -10 -5 -13 -2 -10 11 2 11 12 19 22 19 13 0 23 11 31
34 6 19 17 37 23 39 7 2 12 10 12 17 0 7 4 15 8 17 5 2 34 37 64 79 31 41 80
102 109 134 52 56 51 66 0 21 l-24 -21 11 21 c25 49 171 149 289 199 83 35
298 92 353 94 14 0 56 -6 95 -14z m124 -3225 c21 -36 37 -69 34 -73 -3 -5 -39
-7 -81 -5 -75 3 -77 4 -74 28 2 14 8 29 13 35 5 5 9 17 9 27 0 10 7 18 17 18
9 0 13 3 10 7 -8 8 13 35 24 31 5 -2 26 -32 48 -68z"/>
<path d="M2838 4452 c-19 -20 -53 -62 -75 -92 -22 -30 -64 -89 -95 -130 -89
-121 -138 -236 -138 -325 0 -46 19 -105 34 -105 21 0 26 24 15 65 -20 73 16
217 53 207 14 -3 18 1 18 24 -1 28 -1 28 -15 10 -8 -11 -15 -16 -15 -10 0 5
11 22 25 38 14 16 25 35 25 42 0 11 32 57 112 163 18 23 38 48 43 55 19 20 57
87 53 91 -2 3 -20 -12 -40 -33z"/>
<path d="M2788 4132 c-25 -118 -77 -223 -79 -160 0 17 -7 10 -24 -27 -32 -67
-31 -70 13 -46 46 25 120 51 148 51 28 0 71 39 79 71 4 16 0 42 -10 65 -15 35
-18 37 -25 19 -5 -11 -18 -41 -29 -67 -11 -27 -24 -48 -29 -48 -5 0 -10 24
-11 53 -1 28 -5 79 -9 112 l-7 59 -17 -82z"/>
<path d="M4181 3860 c-7 -41 -15 -90 -18 -107 -6 -38 -23 -34 -23 5 0 18 -3
23 -9 14 -4 -7 -14 -12 -22 -10 -8 2 -13 -4 -11 -13 1 -9 -8 -24 -20 -35 -21
-19 -21 -19 -14 1 15 36 25 89 20 97 -3 5 0 15 6 23 19 22 -3 18 -28 -5 -36
-33 -64 -99 -70 -163 -3 -42 -8 -55 -14 -43 -10 18 -28 22 -28 5 0 -16 26 -39
35 -31 5 4 5 1 1 -6 -4 -7 -1 -15 8 -18 9 -3 16 -11 16 -16 0 -6 -8 -7 -17 -4
-9 4 -19 2 -22 -3 -17 -27 -77 57 -85 118 -6 48 -5 52 41 113 26 35 58 71 71
82 13 10 21 20 18 23 -10 10 -80 -56 -100 -95 -10 -19 -20 -32 -22 -29 -9 9
33 81 62 106 15 13 39 24 53 25 14 1 34 6 43 11 12 8 -4 11 -60 12 -83 3 -146
-7 -148 -22 -4 -24 -17 -55 -24 -55 -5 0 -6 -8 -3 -18 2 -10 -5 -28 -16 -41
-12 -13 -21 -30 -21 -38 0 -8 -5 -11 -11 -8 -6 4 -8 13 -5 20 2 7 -4 22 -15
33 -14 16 -19 36 -19 77 0 30 -4 55 -10 55 -5 0 -11 -6 -11 -12 -4 -47 -3 -98
3 -126 5 -28 4 -32 -10 -27 -16 6 -5 -9 41 -57 23 -24 12 -41 -20 -33 -14 3
-34 3 -45 -1 -31 -9 -3 -24 48 -24 22 0 63 -11 92 -25 29 -14 56 -25 60 -25 5
0 19 -14 31 -31 20 -26 22 -39 17 -77 -3 -26 -13 -50 -21 -55 -16 -8 -21 -37
-7 -37 4 0 13 5 20 12 10 10 11 5 6 -20 -5 -23 -3 -32 7 -32 10 0 10 -3 2 -11
-9 -9 -9 -17 0 -31 10 -16 9 -21 -5 -29 -10 -6 -18 -15 -18 -20 0 -6 4 -7 10
-4 6 3 7 -1 4 -9 -3 -8 -14 -18 -25 -21 -25 -8 -24 -22 2 -35 17 -10 20 -9 17
5 -2 10 8 24 22 34 l24 16 -24 -40 c-35 -57 -52 -76 -79 -86 -15 -6 -21 -15
-17 -24 3 -8 2 -15 -3 -15 -12 0 -22 45 -15 64 4 11 0 16 -14 16 -12 0 -23 -9
-27 -20 -4 -11 -11 -18 -16 -14 -5 3 2 -14 15 -38 16 -29 22 -49 16 -58 -6 -9
-5 -17 2 -21 9 -6 9 -11 0 -21 -7 -9 -8 -19 -2 -28 6 -8 10 -36 10 -62 0 -26
5 -70 11 -97 8 -37 8 -64 -1 -98 -6 -27 -16 -67 -21 -91 -12 -47 -5 -67 14
-41 8 10 20 13 37 9 33 -8 109 13 170 46 51 28 64 44 33 42 -35 -3 -98 14
-115 29 -16 14 -18 14 -18 1 0 -21 -56 -68 -81 -68 -18 0 -20 4 -14 29 5 24
59 138 71 150 2 2 17 -8 34 -23 23 -19 44 -26 78 -28 26 0 54 -2 62 -3 30 -3
130 55 130 75 0 16 -35 16 -60 0 -33 -22 -99 -40 -141 -40 -28 1 -31 2 -17 11
10 5 24 9 30 8 7 -1 21 -1 30 0 28 2 141 99 168 144 25 42 62 199 53 224 -10
25 -22 2 -28 -55 -13 -117 -59 -207 -124 -245 -35 -21 -43 -6 -9 17 12 9 19
19 15 22 -4 4 -15 -1 -26 -10 -25 -22 -40 -2 -17 23 9 10 16 26 16 36 0 16 -6
14 -33 -13 -18 -18 -38 -32 -45 -32 -7 0 -12 -4 -12 -10 0 -5 -7 -10 -15 -10
-8 0 -15 5 -15 10 0 6 7 10 15 10 8 0 15 5 15 11 0 5 17 36 39 67 27 40 41 73
46 110 4 28 11 54 16 58 5 3 9 16 9 29 0 13 4 34 9 47 11 27 34 110 56 194 17
69 21 169 5 159 -5 -3 -10 -26 -10 -50 0 -24 -5 -47 -11 -51 -15 -9 -3 77 18
126 8 19 16 58 19 85 2 28 6 77 9 110 3 33 2 74 -3 90 -8 27 -10 22 -21 -45z"/>
<path d="M2745 3804 c-26 -7 -75 -71 -74 -98 0 -16 4 -14 15 12 16 38 27 42
18 8 -3 -13 -1 -27 5 -30 16 -10 14 -26 -3 -26 -8 0 -17 -9 -21 -19 -3 -11
-12 -22 -20 -25 -22 -8 -18 -26 4 -26 11 0 23 -4 26 -10 11 -18 22 -11 39 25
21 43 36 53 48 31 8 -15 69 -46 90 -46 5 0 7 13 3 30 -6 27 -4 30 18 30 35 0
115 -95 100 -119 -5 -9 -20 -17 -32 -19 -23 -4 -28 -17 -8 -25 7 -3 5 -6 -5
-6 -10 -1 -18 -6 -18 -11 0 -6 11 -8 26 -4 36 9 24 -9 -16 -26 -30 -13 -41
-30 -17 -30 7 0 29 9 50 20 l37 20 -6 -25 c-5 -22 -3 -25 20 -25 19 0 25 -5
23 -17 -1 -10 3 -19 8 -20 6 -2 10 3 10 11 0 7 15 25 32 40 45 38 67 102 59
167 -5 38 -4 54 6 60 7 4 9 12 4 16 -5 4 -11 2 -13 -4 -9 -24 -25 -13 -19 11
3 14 2 28 -4 31 -5 3 -10 1 -10 -5 0 -7 -8 -9 -19 -5 -15 5 -19 -1 -25 -37 -9
-56 -9 -80 2 -87 4 -3 3 -17 -4 -31 -15 -28 -14 -30 -38 79 -14 65 -15 75 -1
85 18 14 9 60 -11 52 -7 -3 -18 3 -24 12 -8 12 -13 14 -16 5 -3 -7 -10 -13
-16 -13 -6 0 -5 6 2 15 7 9 10 18 8 21 -8 7 -208 14 -233 8z"/>
<path d="M2248 3685 c-2 -33 0 -66 5 -72 5 -7 7 -19 4 -28 -8 -20 12 -74 40
-108 27 -33 29 -47 7 -47 -8 0 -13 4 -9 9 3 6 -5 15 -17 22 -12 7 -30 21 -40
33 -10 12 -17 16 -18 8 0 -7 10 -20 21 -30 12 -9 31 -27 42 -39 15 -17 24 -20
33 -12 8 6 26 8 45 4 30 -7 31 -6 26 21 -8 46 -15 73 -22 84 -3 6 0 10 7 10 7
0 1 10 -13 23 -41 36 -83 98 -95 142 l-11 40 -5 -60z"/>
<path d="M2530 3687 c0 -22 -27 -57 -45 -57 -4 0 -5 13 -2 30 4 16 2 32 -3 35
-6 4 -10 -23 -10 -67 0 -41 -4 -78 -9 -83 -5 -6 -23 -53 -41 -105 -41 -124
-70 -154 -142 -148 -38 4 -48 2 -44 -8 6 -16 -10 -28 -19 -14 -3 5 -14 10 -24
10 -10 0 -31 18 -46 40 -15 22 -30 39 -32 36 -10 -10 32 -107 57 -131 25 -24
35 -27 70 -22 l41 5 -7 -31 c-3 -18 -9 -36 -13 -42 -3 -5 -7 -39 -8 -75 -3
-77 -18 -95 -75 -86 -24 4 -38 2 -38 -4 0 -6 4 -9 9 -5 6 3 11 -16 13 -42 2
-34 7 -47 17 -45 29 6 51 -11 70 -52 30 -70 38 -63 38 32 0 48 1 103 2 122 l3
35 12 -30 13 -30 12 23 c18 34 24 20 11 -25 -10 -33 -10 -45 4 -71 20 -39 20
-59 1 -96 -9 -16 -13 -31 -10 -34 3 -3 0 -11 -6 -19 -13 -15 7 -39 144 -181
85 -87 115 -103 53 -27 l-38 45 37 75 c34 67 38 95 15 95 -4 0 -11 -12 -15
-27 -9 -37 -36 -78 -44 -67 -3 5 -15 14 -26 20 -11 6 -22 22 -23 35 -2 13 -10
32 -18 43 -7 11 -11 30 -8 43 4 14 2 23 -6 23 -6 0 -10 8 -9 18 2 9 -3 28 -11
42 -16 29 -16 168 0 184 16 16 12 29 -6 22 -13 -5 -15 -1 -10 17 3 12 8 50 11
82 8 70 33 186 45 200 5 6 17 37 28 70 34 100 81 210 92 213 13 5 13 39 0 47
-6 3 -10 -4 -10 -18z"/>
<path d="M3454 3557 c-35 -13 -67 -37 -60 -44 3 -3 -4 -14 -14 -25 -18 -19
-20 -20 -36 -3 -17 16 -18 16 -35 -6 -25 -33 -15 -50 22 -37 37 13 46 5 31
-28 -8 -17 -9 -31 -2 -44 6 -11 6 -28 1 -42 -9 -23 -9 -22 -16 7 -12 54 -15
59 -26 48 -10 -10 21 -104 43 -130 15 -19 28 -16 28 7 0 26 8 25 39 -2 l25
-23 -17 25 c-10 14 -20 31 -23 38 -9 19 6 30 16 12 26 -42 26 -43 51 -28 13 7
25 14 27 15 8 3 -24 43 -35 43 -7 0 -13 5 -13 10 0 6 -11 10 -25 10 -14 0 -25
5 -25 10 0 6 9 10 19 10 10 0 21 7 25 15 3 8 10 15 17 15 6 0 9 -6 6 -14 -9
-23 104 -49 117 -27 3 5 -1 11 -9 15 -26 10 -18 34 10 28 14 -2 25 0 25 6 0
15 -77 35 -106 28 -13 -4 -24 -2 -24 3 0 11 31 25 45 21 6 -2 39 -4 74 -5 58
-2 67 -5 88 -31 22 -27 32 -84 15 -84 -4 0 -19 14 -34 30 -14 17 -32 30 -40
30 -7 0 3 -16 23 -34 33 -31 35 -36 21 -50 -9 -8 -12 -19 -8 -23 4 -5 18 4 31
19 21 24 28 27 50 18 53 -20 63 -14 70 43 6 44 3 59 -15 90 -26 45 -47 50 -25
6 16 -29 15 -31 -4 -36 -17 -4 -19 -9 -10 -25 8 -14 8 -23 0 -31 -8 -8 -11 -4
-11 14 0 18 -11 31 -43 50 -73 46 -105 59 -144 59 -46 0 -33 17 17 22 l35 4
-30 13 c-42 18 -104 22 -141 8z"/>
<path d="M2950 3289 c0 -6 -5 -9 -12 -7 -7 3 -23 -8 -36 -24 -13 -15 -30 -28
-37 -28 -7 0 -15 -13 -18 -30 -5 -21 -19 -37 -49 -56 -24 -14 -57 -40 -75 -57
-22 -21 -37 -28 -50 -23 -17 7 -17 8 0 17 21 12 23 44 2 35 -18 -7 -20 5 -3
22 7 7 8 12 2 12 -14 0 -44 -38 -44 -56 0 -13 -3 -14 -14 -5 -12 10 -17 8 -26
-8 -6 -12 -7 -21 -3 -20 20 3 23 -2 13 -22 -7 -12 -17 -18 -27 -15 -12 5 -13
0 -7 -27 4 -17 8 -54 9 -82 1 -27 5 -58 10 -68 5 -11 2 -24 -7 -35 -20 -23
-28 -48 -19 -58 13 -15 21 -73 11 -79 -5 -3 -17 -23 -26 -43 -8 -20 -20 -44
-24 -53 -5 -9 -6 -20 -3 -23 8 -8 33 13 33 28 0 19 69 111 83 111 6 0 13 10
15 23 3 16 8 22 19 18 13 -5 14 0 9 26 -16 81 -18 128 -7 128 6 0 11 5 11 11
0 6 -9 8 -20 4 -16 -5 -20 -2 -20 17 0 13 7 33 15 44 8 10 15 28 15 39 0 18
76 77 159 124 21 12 23 11 18 -2 -4 -11 -2 -14 9 -10 8 3 22 22 30 43 8 21 32
51 52 68 l38 30 -1 -47 c0 -75 20 -64 23 13 3 44 0 66 -6 62 -6 -4 -13 -2 -17
4 -8 13 -25 13 -25 -1z"/>
<path d="M3300 3173 c0 -13 -3 -14 -12 -5 -13 13 -48 16 -48 4 0 -4 13 -13 28
-19 31 -14 82 -112 82 -156 0 -14 7 -32 15 -41 8 -8 18 -29 21 -45 4 -17 10
-31 15 -31 17 0 9 -37 -11 -55 -11 -10 -18 -20 -16 -22 10 -10 -37 -44 -51
-39 -13 5 -14 4 -3 -9 27 -33 -1 -24 -65 19 -66 46 -99 60 -76 33 16 -20 -6
-39 -31 -26 -10 6 -39 8 -64 6 -37 -4 -50 -1 -73 19 -16 13 -43 27 -60 30 -17
4 -34 10 -36 15 -3 4 -21 5 -40 2 -22 -4 -59 3 -104 17 -65 22 -110 22 -97 1
4 -5 20 -13 38 -16 20 -5 54 -30 94 -72 53 -55 67 -65 89 -61 15 3 28 0 33 -8
8 -14 111 -39 120 -29 7 7 -63 35 -87 35 -11 0 -27 9 -35 21 -8 12 -19 18 -26
14 -13 -8 -30 11 -30 34 0 11 4 10 19 -3 16 -15 23 -16 42 -5 20 10 25 9 40
-10 10 -12 20 -18 23 -13 6 10 174 -11 201 -25 11 -6 29 -20 39 -32 13 -15 26
-19 47 -14 25 5 29 3 23 -13 -19 -59 -25 -64 -80 -64 -29 0 -56 5 -59 10 -4 6
-10 8 -14 6 -4 -3 -27 1 -52 8 -36 11 -85 13 -131 7 -5 -1 -8 -8 -8 -17 0 -12
-6 -15 -24 -10 -14 3 -26 1 -28 -5 -2 -7 -11 -7 -30 1 -28 13 -70 -1 -65 -22
1 -6 -11 -12 -28 -12 -32 -1 -52 -36 -20 -36 9 0 14 -4 10 -9 -8 -14 35 -91
50 -91 8 0 20 -6 27 -14 34 -33 73 -43 161 -40 65 2 87 0 84 -9 -2 -8 -41 -12
-128 -13 -140 -2 -157 -4 -114 -13 25 -6 30 -11 28 -34 -1 -15 2 -27 8 -27 5
0 9 9 9 20 0 39 51 44 205 21 39 -6 96 -10 128 -11 49 0 69 -6 118 -35 58 -34
221 -95 253 -95 24 0 19 34 -9 58 -14 12 -27 22 -30 22 -2 0 -27 13 -55 30
-27 16 -56 27 -63 25 -7 -3 -17 7 -24 24 -8 23 -15 29 -32 24 -17 -4 -21 -1
-21 17 0 18 -3 20 -14 11 -7 -6 -21 -9 -30 -5 -9 3 -16 1 -16 -5 0 -6 5 -11
12 -11 6 0 9 -3 5 -6 -10 -10 -97 28 -97 42 0 7 -9 18 -20 24 -16 9 -22 8 -26
-5 -8 -21 -21 -19 -29 6 -5 13 -10 17 -18 11 -7 -5 -24 -12 -39 -16 -23 -5
-28 -3 -28 11 -1 17 -1 17 -14 1 -17 -23 -61 -25 -52 -3 8 21 -8 19 -29 -5
-19 -21 -65 -28 -65 -10 0 6 14 13 30 17 29 5 47 19 38 29 -3 2 -27 -2 -55 -9
-64 -17 -116 -4 -121 30 -3 17 6 26 35 41 21 11 54 23 73 27 19 4 41 12 47 17
17 14 209 12 318 -2 61 -9 104 -21 135 -38 l45 -26 -25 28 c-25 27 -25 28 -5
42 13 10 16 17 9 22 -6 4 -9 23 -6 45 4 33 7 37 33 37 16 0 29 4 29 8 0 17
-12 21 -35 12 -18 -7 -25 -5 -29 6 -4 10 1 18 12 21 22 5 27 66 7 97 -19 30
-28 83 -16 91 6 3 11 11 11 16 0 6 -8 3 -17 -7 -17 -16 -18 -15 -25 17 -4 19
-3 35 3 37 5 2 9 18 9 36 0 22 -12 46 -39 79 -22 26 -43 57 -46 67 -8 24 -25
26 -25 3z"/>
<path d="M3621 3076 c-7 -8 -12 -58 -14 -120 -2 -105 -2 -107 19 -102 20 5 21
2 19 -47 -5 -148 -35 -242 -79 -253 -17 -4 -23 -13 -23 -32 -1 -15 -2 -36 -4
-46 -3 -14 9 -26 51 -47 30 -16 66 -29 80 -29 l25 0 -27 14 c-15 8 -38 16 -50
18 -20 3 -23 8 -20 43 2 22 16 68 32 101 17 39 30 88 35 134 4 41 11 86 16
102 5 21 1 48 -17 101 -14 39 -26 96 -27 124 -1 29 -3 53 -3 53 -1 0 -7 -6
-13 -14z"/>
<path d="M2870 2191 c0 -5 16 -19 35 -31 19 -12 35 -26 35 -31 0 -6 21 -9 48
-8 26 2 103 -1 172 -5 124 -8 126 -9 239 -63 117 -56 171 -73 171 -55 0 5 -13
20 -30 33 -16 13 -30 30 -30 37 0 7 -7 15 -15 18 -8 4 -12 10 -9 15 3 5 2 14
-2 20 -4 8 -9 7 -14 -2 -5 -7 -24 -12 -44 -11 -46 2 -45 -4 4 -24 22 -9 40
-20 40 -25 0 -10 -60 10 -81 27 -8 8 -22 14 -30 14 -8 0 -23 6 -34 13 -32 22
-120 47 -163 47 -22 0 -75 6 -118 14 -130 24 -174 28 -174 17z"/>
<path d="M5180 5041 c-102 -32 -209 -157 -210 -244 0 -39 24 -92 51 -111 13
-9 42 -16 64 -16 33 0 47 6 71 31 l29 30 -45 -20 c-57 -26 -71 -26 -104 0 -50
39 -22 122 69 208 87 82 155 102 200 56 29 -28 32 -63 9 -106 -14 -29 -14 -30
3 -21 56 31 62 62 22 128 -34 55 -102 83 -159 65z"/>
<path d="M1220 5033 c-50 -18 -90 -83 -90 -146 0 -105 140 -227 261 -227 44 0
55 4 83 33 47 46 54 94 22 162 -58 127 -187 210 -276 178z m80 -58 c75 -38
180 -167 180 -222 0 -53 -61 -68 -132 -32 -49 25 -144 112 -164 151 -8 15 -14
43 -14 62 0 59 58 77 130 41z"/>
<path d="M5420 4840 c0 -15 -285 -240 -304 -240 -13 0 -11 -7 11 -41 24 -37
28 -39 34 -21 9 24 272 226 300 230 24 4 24 9 -3 49 -23 33 -38 42 -38 23z"/>
<path d="M990 4758 c-51 -70 -32 -136 49 -173 35 -15 48 -16 97 -6 89 17 130
14 154 -11 46 -49 -1 -108 -69 -88 -39 11 -38 -4 1 -28 37 -22 77 -7 102 39
25 46 16 81 -33 130 -49 49 -74 54 -171 36 -77 -14 -82 -14 -105 5 -14 11 -25
27 -25 37 0 29 30 61 57 61 25 0 26 0 8 20 -25 28 -31 26 -65 -22z"/>
<path d="M5535 4612 c-27 -8 -111 -35 -186 -59 -75 -23 -145 -43 -157 -43 -26
0 -27 -8 -6 -35 11 -14 17 -17 22 -8 8 12 73 43 90 43 5 0 17 -18 27 -40 l18
-40 -28 -30 c-16 -17 -35 -30 -42 -30 -17 0 -17 -4 8 -52 l21 -41 16 26 c10
13 70 85 135 158 100 113 148 172 135 168 -2 0 -25 -8 -53 -17z"/>
<path d="M5618 4496 c-23 -17 -23 -26 2 -26 22 0 57 -57 43 -70 -15 -15 -309
-170 -321 -170 -16 0 -15 -15 4 -51 13 -27 17 -29 27 -15 14 18 299 166 320
166 23 0 43 -58 29 -81 -18 -28 -15 -31 18 -14 34 18 35 18 17 48 -8 12 -34
68 -58 124 -24 57 -48 103 -54 103 -5 -1 -18 -7 -27 -14z"/>
<path d="M836 4469 c-15 -9 -86 -143 -86 -163 0 -3 8 -6 19 -6 29 0 329 -148
340 -167 8 -16 11 -15 20 10 6 16 16 37 22 48 9 17 8 20 -8 17 -24 -4 -333
153 -333 169 0 6 7 19 16 27 44 45 154 -14 154 -82 0 -30 20 -24 40 11 14 25
13 30 -5 64 -37 69 -124 103 -179 72z"/>
<path d="M5760 4190 c-18 -22 -326 -154 -340 -145 -13 8 -13 -14 1 -54 10 -29
13 -30 28 -18 19 18 319 137 344 137 9 0 17 6 17 14 0 13 -28 86 -33 86 -1 -1
-9 -9 -17 -20z"/>
<path d="M666 4084 c-20 -58 -20 -57 2 -50 21 7 343 -109 358 -130 10 -12 18
3 43 78 34 101 34 98 -21 129 -22 12 -23 5 -2 -26 17 -26 13 -88 -7 -101 -11
-7 -315 112 -340 133 -15 13 -18 9 -33 -33z"/>
<path d="M5653 3991 c-119 -41 -179 -113 -171 -205 9 -106 71 -151 199 -144
136 8 214 76 214 188 0 76 -29 129 -85 158 -53 26 -88 27 -157 3z m194 -85
c75 -87 -51 -197 -226 -196 -71 1 -94 12 -110 51 -21 58 42 122 159 161 77 25
147 19 177 -16z"/>
<path d="M620 3941 c0 -11 -9 -57 -20 -103 -25 -103 -25 -107 0 -101 27 7 339
-68 357 -85 8 -8 15 -13 17 -11 4 4 46 182 46 193 0 5 -74 46 -84 46 -3 0 6
-12 19 -26 17 -18 25 -38 25 -63 0 -63 -9 -67 -87 -46 -37 10 -71 21 -75 24
-13 12 8 66 30 77 19 10 17 12 -29 27 -49 15 -51 15 -34 -3 12 -13 15 -27 9
-55 -7 -42 -9 -42 -118 -10 l-54 16 12 47 c8 31 20 51 35 58 22 11 22 12 -10
23 -41 14 -39 14 -39 -8z"/>
<path d="M560 3648 c0 -8 -3 -35 -6 -59 l-6 -44 69 -2 c37 -1 80 -6 94 -11 26
-10 26 -10 16 -84 -5 -40 -10 -74 -11 -75 -2 -2 -38 2 -82 7 -49 6 -83 16 -90
25 -9 12 -13 4 -18 -37 -3 -29 -6 -61 -6 -71 0 -17 1 -17 16 -2 12 11 28 14
62 10 26 -3 106 -10 177 -15 102 -8 133 -14 143 -27 10 -14 12 -11 12 23 0 21
3 50 7 63 5 21 4 22 -14 12 -19 -9 -92 -7 -152 5 -23 5 -24 7 -18 76 3 39 8
73 11 76 3 3 38 0 78 -7 49 -8 78 -18 89 -31 16 -18 17 -18 23 18 12 72 9 78
-26 74 -48 -5 -328 55 -350 75 -15 14 -18 14 -18 1z"/>
<path d="M5899 3616 c-2 -2 -80 -18 -172 -35 -133 -25 -172 -29 -183 -20 -13
10 -14 6 -9 -32 10 -68 13 -75 28 -56 12 15 204 53 229 45 13 -5 -27 -52 -162
-192 -44 -46 -67 -76 -55 -73 11 3 98 11 193 18 136 9 175 9 187 -1 13 -11 15
-4 15 49 0 33 -4 61 -9 61 -5 0 -11 -5 -13 -10 -3 -11 -173 -33 -214 -28 -23
3 -20 8 46 83 39 44 91 106 116 138 37 47 42 57 26 57 -10 0 -21 -2 -23 -4z"/>
<path d="M655 2998 l-21 -53 -59 -5 -59 -5 43 -29 c23 -16 46 -36 51 -45 5 -9
10 -11 10 -4 0 7 -16 25 -35 40 l-35 28 46 5 c44 5 47 7 64 49 18 48 24 46 34
-11 l7 -38 52 -1 c48 0 50 -1 32 -14 -61 -43 -59 -39 -47 -86 6 -24 10 -45 8
-47 -2 -1 -17 9 -34 23 -36 30 -42 31 -76 4 -14 -11 -30 -18 -35 -15 -5 3 -12
-1 -15 -10 -8 -22 -9 -21 20 -28 19 -5 35 0 59 18 l32 25 48 -25 c50 -25 75
-30 75 -15 0 5 -7 28 -15 51 -20 57 -20 56 25 86 22 15 37 30 34 35 -3 5 -27
9 -54 9 l-48 0 -17 49 c-14 44 -31 60 -65 61 -3 0 -14 -24 -25 -52z"/>
<path d="M5676 3007 c-7 -19 -17 -43 -20 -55 -7 -19 -15 -22 -69 -22 l-62 0
48 -33 c45 -30 47 -34 43 -67 -4 -25 -3 -31 4 -20 20 31 11 58 -27 82 l-38 23
52 3 c50 3 52 4 64 40 18 58 22 60 34 12 11 -45 11 -45 60 -50 l50 -5 -37 -23
c-42 -26 -42 -26 -27 -71 15 -42 7 -48 -29 -22 -37 26 -36 26 -78 -5 -23 -18
-34 -22 -34 -13 0 11 -2 11 -10 -1 -15 -23 -12 -27 16 -34 20 -5 36 0 65 20
l38 26 27 -21 c26 -21 84 -29 84 -12 0 5 -7 28 -15 51 -8 23 -15 44 -15 45 0
2 20 16 45 33 24 16 42 32 38 36 -3 3 -30 6 -58 6 l-52 0 -13 46 c-9 32 -20
48 -37 55 -33 12 -31 13 -47 -24z"/>
<path d="M770 2426 c-96 -29 -105 -34 -105 -57 0 -25 5 -26 80 -18 21 3 30 -1
33 -13 2 -11 -8 -20 -35 -28 -49 -16 -56 -23 -48 -50 8 -26 14 -25 145 22 86
31 95 36 92 58 -3 33 -4 33 -56 16 -58 -20 -56 -20 -56 4 0 14 11 22 43 31 23
7 43 14 45 15 8 5 -12 54 -22 53 -6 0 -58 -15 -116 -33z"/>
<path d="M5492 2348 c-18 -23 -43 -91 -35 -98 5 -3 57 -26 116 -50 90 -36 110
-41 118 -29 19 30 10 48 -31 60 -45 14 -55 33 -12 24 73 -16 71 -16 78 10 9
35 1 40 -66 40 -52 0 -59 2 -73 28 -13 21 -23 27 -50 27 -19 0 -39 -6 -45 -12z"/>
<path d="M825 2251 c-57 -22 -101 -44 -103 -53 -1 -8 6 -36 18 -62 14 -35 25
-47 37 -44 11 2 17 11 15 23 -8 50 -6 58 16 66 19 7 24 4 34 -19 7 -15 13 -29
14 -30 1 -2 12 -1 23 3 17 5 19 10 10 32 -12 33 -7 49 19 55 16 4 23 -1 32
-23 13 -31 18 -33 39 -20 12 7 11 17 -5 60 -11 32 -24 51 -33 51 -9 -1 -61
-18 -116 -39z"/>
<path d="M5415 2168 l-23 -53 106 -52 c59 -29 112 -53 118 -53 6 0 21 25 34
56 19 47 20 58 9 65 -22 13 -26 11 -39 -21 -14 -35 -12 -33 -44 -19 -21 10
-23 15 -15 37 20 52 -19 74 -41 23 -9 -22 -16 -27 -32 -23 -26 6 -31 22 -19
54 8 21 7 28 -5 32 -24 9 -24 9 -49 -46z"/>
<path d="M876 2089 c-54 -10 -101 -20 -103 -22 -2 -3 1 -15 7 -29 9 -19 17
-23 39 -20 38 5 50 -24 22 -52 l-20 -20 41 -78 c29 -53 47 -78 58 -76 14 3 16
16 8 62 -2 14 16 29 80 64 81 45 90 54 73 80 -6 11 -30 2 -109 -37 -56 -28
-104 -51 -108 -51 -5 0 54 52 150 132 22 19 27 29 22 46 -9 27 -25 27 -160 1z"/>
<path d="M5363 2038 c-22 -25 -47 -68 -41 -73 12 -11 205 -115 214 -115 12 0
44 63 44 86 0 35 -32 73 -82 98 -65 32 -108 34 -135 4z"/>
<path d="M5296 1924 c-10 -26 -8 -29 35 -53 22 -13 39 -25 37 -27 -2 -2 -26 3
-53 12 -46 13 -51 13 -62 -3 -7 -9 -13 -20 -13 -24 0 -4 46 -37 102 -74 l103
-66 18 22 c18 22 18 22 -28 52 -25 16 -44 31 -42 33 1 2 25 -3 52 -12 46 -13
51 -13 62 3 7 9 13 22 13 27 0 11 -193 126 -210 126 -4 0 -11 -7 -14 -16z"/>
<path d="M1103 1898 c-4 -7 -6 -20 -5 -28 1 -9 -29 -34 -80 -64 -46 -28 -84
-51 -86 -52 -8 -5 20 -44 30 -44 7 0 47 23 90 51 63 42 81 49 92 39 9 -7 21
-8 30 -3 13 7 10 16 -15 61 -32 54 -42 61 -56 40z"/>
<path d="M1098 1725 c-53 -35 -99 -68 -102 -73 -3 -5 3 -17 14 -27 18 -16 20
-16 54 10 34 26 56 27 56 2 0 -7 -16 -22 -35 -35 -39 -25 -41 -30 -21 -57 12
-17 19 -14 110 56 53 41 96 79 96 85 0 6 -6 16 -13 22 -9 8 -23 3 -51 -18 -21
-16 -43 -27 -47 -24 -19 11 -7 32 31 59 38 27 40 29 24 46 -10 11 -18 19 -18
19 -1 0 -45 -29 -98 -65z"/>
<path d="M5151 1698 c-23 -31 -28 -45 -20 -54 6 -8 51 -43 100 -80 85 -63 91
-66 104 -48 13 17 12 22 -21 51 -36 32 -37 33 -19 59 14 22 15 28 4 35 -21 13
-28 11 -41 -11 -16 -25 -30 -25 -53 0 -16 18 -16 21 -2 43 12 18 13 27 4 36
-17 17 -23 14 -56 -31z"/>
<path d="M1320 1468 c-51 -35 -75 -73 -75 -119 0 -82 99 -127 177 -81 34 19
68 78 68 117 0 88 -94 134 -170 83z"/>
<path d="M4920 1425 c-11 -13 -8 -22 20 -56 24 -31 29 -44 21 -52 -9 -9 -20
-2 -47 27 -32 35 -37 37 -51 23 -14 -14 -14 -18 4 -40 42 -54 141 -157 150
-157 6 0 16 7 23 15 11 13 7 22 -25 55 -33 34 -36 40 -21 46 12 5 28 -4 51
-26 34 -33 35 -33 55 -15 21 19 21 19 -67 107 -48 48 -91 88 -94 88 -4 0 -12
-7 -19 -15z"/>
<path d="M4791 1305 c-44 -40 -45 -43 -32 -64 8 -12 12 -12 24 -3 12 11 26 -1
82 -68 64 -77 68 -80 86 -64 22 20 22 20 -54 106 -51 58 -58 70 -47 83 11 13
11 19 -2 32 -14 14 -20 11 -57 -22z"/>
<path d="M1518 1230 c-43 -49 -78 -93 -77 -97 0 -5 19 -23 41 -41 38 -30 43
-32 57 -17 15 15 14 18 -8 36 -25 20 -23 45 4 55 9 4 24 -1 34 -10 13 -12 20
-13 29 -4 17 17 15 27 -8 46 -19 17 -19 18 -1 39 l19 23 25 -21 c25 -19 26
-19 36 -1 8 15 4 25 -22 50 -18 18 -37 32 -42 32 -6 0 -45 -41 -87 -90z"/>
<path d="M1626 1146 c-42 -53 -76 -99 -76 -103 1 -16 54 -46 81 -46 39 0 75
27 110 81 39 61 37 105 -7 139 l-31 24 -77 -95z"/>
<path d="M4694 1226 c-17 -13 -15 -20 31 -125 27 -62 53 -115 58 -118 18 -11
38 20 32 49 -8 35 17 49 44 24 16 -15 19 -15 35 3 17 18 14 22 -82 99 -89 72
-102 80 -118 68z"/>
<path d="M4574 1137 l-27 -24 67 -101 c37 -56 71 -102 75 -102 5 0 14 7 21 15
10 12 8 23 -15 57 -24 36 -25 42 -11 50 25 14 20 70 -9 102 -30 32 -65 33
-101 3z"/>
<path d="M1792 1113 c-47 -61 -92 -135 -92 -155 0 -49 89 -79 122 -40 35 42
99 155 94 168 -11 28 -35 12 -77 -52 -54 -84 -69 -98 -82 -85 -7 7 7 37 46 94
41 63 53 87 44 96 -17 17 -23 14 -55 -26z"/>
<path d="M1993 900 c-79 -94 -82 -100 -62 -110 16 -9 24 -8 38 4 10 9 25 16
35 16 14 0 16 -6 11 -29 -5 -24 -2 -32 15 -41 12 -6 23 -10 25 -8 1 2 16 57
33 123 29 110 30 121 15 133 -9 6 -19 12 -22 12 -3 0 -43 -45 -88 -100z"/>
<path d="M4291 966 c-87 -92 45 -282 147 -210 64 45 66 133 4 197 -31 32 -42
37 -82 37 -36 0 -52 -5 -69 -24z"/>
<path d="M2144 946 c-3 -9 -1 -23 6 -30 9 -12 3 -33 -31 -105 -23 -50 -40 -93
-38 -95 2 -2 13 -6 24 -10 18 -5 26 6 61 87 34 77 44 92 61 89 13 -2 22 4 26
17 5 20 2 21 -90 58 -7 3 -16 -2 -19 -11z"/>
<path d="M2334 835 c-36 -39 -54 -88 -54 -151 0 -35 4 -43 27 -53 23 -10 30
-9 52 7 34 24 63 84 69 143 3 38 0 51 -17 68 -29 29 -38 27 -77 -14z"/>
<path d="M4003 858 c-20 -7 -33 -18 -33 -28 0 -9 14 -56 30 -105 17 -49 28
-94 26 -100 -3 -6 -5 -5 -5 2 -1 8 -12 10 -34 6 l-32 -5 -24 85 c-29 104 -33
111 -59 103 -19 -6 -19 -7 4 -89 14 -45 29 -99 35 -120 10 -37 12 -38 42 -31
18 3 43 11 57 17 14 6 27 11 30 11 61 14 100 31 100 46 0 25 -9 30 -36 20 -19
-8 -26 -5 -34 10 -16 29 -12 39 16 46 38 10 27 39 -15 39 -25 0 -36 6 -42 20
-12 30 -11 32 17 39 17 5 24 12 22 24 -4 21 -23 23 -65 10z"/>
<path d="M2438 714 c-38 -124 -39 -118 8 -128 4 0 15 24 25 54 l18 55 -3 -58
c-3 -54 -1 -60 21 -70 13 -5 25 -8 27 -6 9 9 65 233 60 241 -3 4 -13 8 -23 8
-13 0 -22 -14 -33 -52 l-16 -53 -1 63 c-1 58 -3 62 -24 62 -20 0 -26 -12 -59
-116z"/>
<path d="M3811 799 c-20 -8 -22 -14 -17 -39 7 -38 1 -38 -19 1 -12 22 -21 29
-33 24 -9 -4 -45 -12 -79 -17 -49 -9 -63 -15 -63 -28 0 -10 9 -20 19 -23 13
-3 21 -17 25 -48 21 -133 26 -149 52 -149 29 0 29 2 4 110 -15 68 -16 87 -6
95 7 6 15 16 17 24 8 24 74 -92 88 -154 11 -50 15 -55 34 -49 30 9 30 7 16 55
-6 24 -11 81 -10 127 1 45 1 82 -1 81 -2 0 -14 -5 -27 -10z"/>
<path d="M2771 715 c-36 -42 -45 -72 -38 -127 11 -82 88 -117 155 -69 51 36
62 70 48 148 -9 51 -47 83 -99 83 -27 0 -42 -8 -66 -35z"/>
<path d="M3500 730 c-31 -31 -26 -73 15 -112 44 -41 45 -74 2 -71 -22 2 -27
-2 -23 -13 3 -9 6 -20 6 -25 0 -5 15 -9 34 -9 71 0 89 77 31 131 -39 37 -46
69 -15 69 24 0 28 35 4 44 -25 9 -33 7 -54 -14z"/>
<path d="M3378 733 c-28 -4 -28 -5 -28 -82 0 -43 3 -99 6 -125 7 -45 7 -46 45
-46 50 0 69 8 69 31 0 14 -7 19 -29 19 -21 0 -32 6 -36 20 -9 27 1 40 31 40
17 0 24 5 24 20 0 16 -7 20 -30 20 -27 0 -30 3 -30 30 0 25 4 30 25 30 20 0
25 5 25 25 0 26 -7 28 -72 18z"/>
<path d="M3225 717 c-3 -7 -4 -47 -1 -88 2 -41 5 -91 5 -111 1 -34 4 -38 27
-38 24 0 25 3 22 43 -3 39 -1 42 25 45 21 3 27 9 27 28 0 20 -5 24 -30 24 -27
0 -30 3 -30 29 0 25 4 30 28 33 19 2 27 9 27 23 0 17 -8 20 -48 23 -33 2 -49
-1 -52 -11z"/>
</g>
</svg>
